<?xml version="1.0" encoding="UTF-8"?>
<svg id="Capa_2" data-name="Capa 2" xmlns="http://www.w3.org/2000/svg" viewBox="0 0 461.3 276.32">
  <defs>
    <style>
      .cls-1 {
        fill: rgb(255, 255, 255);
        stroke: #000000;
        stroke-width: 1px;
      }

      .cls-2 {
        fill: #fff;
        stroke: #000000;
        stroke-width: 1px;
      }
    </style>
  </defs>
  <g>
    <path class="cls-1" d="M140.13,147.28c-.63-1.07-1.44-2.01-2.43-2.81-2.4-1.95-5.81-3.05-10.22-3.3-.63-.03-1.29-.05-1.96-.05h-6.19v-5.85h15.3c-.87-1.47-1.3-3.27-1.3-5.42v-2.7h-23.03v21.81h15.22c2.2,0,3.88.45,5.05,1.36,1.17.91,1.76,2.2,1.76,3.86s-.61,2.92-1.82,3.89c-1.21.97-2.86,1.45-4.94,1.45s-3.8-.46-5.05-1.39c-1.25-.93-1.88-2.19-1.88-3.78h-9.43c0,4.24,1.42,7.5,4.26,9.77,2.84,2.27,6.91,3.41,12.21,3.41,3.18,0,5.99-.55,8.43-1.65,2.44-1.1,4.33-2.65,5.68-4.66,1.34-2.01,2.02-4.31,2.02-6.93,0-2.77-.56-5.1-1.69-7.01Z"/>
    <path class="cls-1" d="M158.2,115.67c-.19-.45-.41-.88-.64-1.3-1.46-2.63-3.54-4.66-6.25-6.1-2.01-1.07-4.28-1.74-6.79-2.02-.86-.09-1.75-.14-2.67-.14-3.64,0-6.81.72-9.51,2.16-2.71,1.44-4.79,3.47-6.25,6.1-1.46,2.63-2.19,5.71-2.19,9.23v6.25c0,1.94.22,3.75.67,5.42.36,1.36.86,2.62,1.52,3.81.41.75.88,1.45,1.39,2.09,1.3,1.64,2.91,2.98,4.85,4.01,2.27,1.21,4.87,1.91,7.79,2.1.56.04,1.13.06,1.72.06,3.6,0,6.75-.72,9.46-2.16,2.71-1.44,4.79-3.47,6.25-6.1.82-1.47,1.4-3.09,1.76-4.84.28-1.38.42-2.84.42-4.39v-6.25c0-2.96-.51-5.6-1.54-7.93ZM148.07,136.55c-1.53,1.67-3.61,2.5-6.22,2.5s-4.73-.82-6.25-2.47c-.37-.4-.69-.84-.97-1.31-.87-1.47-1.3-3.27-1.3-5.42v-6.25c0-2.84.76-5.09,2.27-6.73,1.51-1.65,3.6-2.47,6.25-2.47.97,0,1.86.11,2.67.33.79.21,1.51.52,2.15.94.52.33,1,.73,1.43,1.2,1.03,1.12,1.71,2.52,2.04,4.2.15.78.23,1.63.23,2.54v6.25c0,.9-.08,1.73-.24,2.51-.33,1.66-1.02,3.06-2.06,4.19Z"/>
    <path class="cls-1" d="M171.92,111.18c-2.74-2.24-6.81-3.35-12.18-3.35h-6.19v-5.85h20.33v-8.12h-29.36v20.87c.79.21,1.51.52,2.15.94h13.07c2.2,0,3.88.45,5.05,1.36,1.17.91,1.76,2.2,1.76,3.86s-.61,2.93-1.82,3.89c-1.21.97-2.86,1.45-4.94,1.45h-.06c-2.09,0-3.76-.47-5-1.39-1.25-.93-1.88-2.19-1.88-3.78h-2.73c.15.78.23,1.63.23,2.54v6.25c0,.9-.08,1.73-.24,2.51,2.45,1.19,5.51,1.82,9.19,1.88.2,0,.39,0,.59,0,3.18,0,5.99-.55,8.43-1.65,2.44-1.09,4.33-2.65,5.68-4.66,1.34-2.01,2.02-4.32,2.02-6.93,0-4.32-1.37-7.59-4.12-9.82Z"/>
  </g>
  <g>
    <path class="cls-1" d="M199.26,130.74c1.64.56,3.16,1.21,4.56,1.95,1.4.74,2.61,1.64,3.63,2.7,1.02,1.06,1.81,2.3,2.37,3.72.56,1.42.84,3.07.84,4.95,0,2.04-.35,3.91-1.05,5.61-.7,1.7-1.68,3.16-2.94,4.38-1.26,1.22-2.74,2.17-4.44,2.85-1.7.68-3.57,1.02-5.61,1.02h-12.6v-7.56h12.6c1.6,0,2.99-.47,4.17-1.41,1.18-.94,1.77-2.25,1.77-3.93,0-1.24-.25-2.25-.75-3.03-.5-.78-1.14-1.42-1.92-1.92-.78-.5-1.66-.92-2.64-1.26-.98-.34-1.95-.69-2.91-1.05-.64-.28-1.29-.56-1.95-.84-.66-.28-1.31-.56-1.95-.84-2.2-1.16-3.82-2.63-4.86-4.41-1.04-1.78-1.56-3.91-1.56-6.39,0-1.8.32-3.45.96-4.95.64-1.5,1.52-2.79,2.64-3.87,1.12-1.08,2.44-1.93,3.96-2.55,1.52-.62,3.16-.95,4.92-.99h14.16v7.38h-14.16c-1.24,0-2.28.42-3.12,1.26-.84.84-1.26,1.9-1.26,3.18,0,1.04.22,1.9.66,2.58.44.68,1.01,1.23,1.71,1.65.7.42,1.47.76,2.31,1.02.84.26,1.66.51,2.46.75Z"/>
    <polygon class="cls-1" points="368.81 103.47 368.81 111.9 226.5 111.9 226.5 157.92 218.22 157.92 218.22 111.9 182.3 111.9 182.3 103.47 368.81 103.47"/>
    <path class="cls-1" d="M300.93,154.97c-1.08.6-2.24,1.09-3.48,1.47-1.24.38-2.5.68-3.78.9-1.28.22-2.58.37-3.9.45-1.32.08-2.58.12-3.78.12h-10.44v-45h10.26c1.56,0,3.17.07,4.83.21,1.66.14,3.3.4,4.92.78,1.62.38,3.17.91,4.65,1.59,1.48.68,2.84,1.56,4.08,2.64,2.44,2.12,4.29,4.75,5.55,7.89,1.26,3.14,1.89,6.31,1.89,9.51,0,1.92-.24,3.84-.72,5.76-.48,1.92-1.18,3.74-2.1,5.46-.92,1.72-2.05,3.29-3.39,4.71-1.34,1.42-2.87,2.59-4.59,3.51ZM298.59,124.43c-1.04-.92-2.14-1.64-3.3-2.16-1.16-.52-2.36-.9-3.6-1.14-1.24-.24-2.52-.38-3.84-.42-1.32-.04-2.64-.06-3.96-.06v29.52h1.8c2,0,3.87-.11,5.61-.33,1.74-.22,3.51-.85,5.31-1.89,2.24-1.24,3.94-3,5.1-5.28,1.16-2.28,1.74-4.66,1.74-7.14,0-2.04-.42-4.05-1.26-6.03-.84-1.98-2.04-3.67-3.6-5.07Z"/>
    <path class="cls-1" d="M314.61,103.47h8.22v54.45h-8.22v-54.45Z"/>
    <path class="cls-1" d="M348.97,157.91c-3.08,0-5.99-.58-8.73-1.74-2.74-1.16-5.14-2.75-7.2-4.77-2.06-2.02-3.69-4.39-4.89-7.11-1.2-2.72-1.8-5.64-1.8-8.76s.59-6.11,1.77-8.85c1.18-2.74,2.8-5.13,4.86-7.17,2.06-2.04,4.46-3.65,7.2-4.83,2.74-1.18,5.67-1.77,8.79-1.77s6.06.59,8.82,1.77c2.76,1.18,5.16,2.79,7.2,4.83s3.66,4.43,4.86,7.17c1.2,2.74,1.8,5.69,1.8,8.85s-.6,6.04-1.8,8.76c-1.2,2.72-2.83,5.09-4.89,7.11-2.06,2.02-4.46,3.61-7.2,4.77-2.74,1.16-5.67,1.74-8.79,1.74ZM348.97,120.47c-2.04,0-3.95.4-5.73,1.2-1.78.8-3.33,1.88-4.65,3.24-1.32,1.36-2.35,2.95-3.09,4.77-.74,1.82-1.11,3.75-1.11,5.79s.38,3.9,1.14,5.7c.76,1.8,1.79,3.38,3.09,4.74,1.3,1.36,2.84,2.44,4.62,3.24,1.78.8,3.69,1.2,5.73,1.2s3.95-.4,5.73-1.2c1.78-.8,3.32-1.88,4.62-3.24,1.3-1.36,2.33-2.94,3.09-4.74.76-1.8,1.14-3.7,1.14-5.7s-.37-3.97-1.11-5.79c-.74-1.82-1.76-3.41-3.06-4.77-1.3-1.36-2.84-2.44-4.62-3.24-1.78-.8-3.71-1.2-5.79-1.2Z"/>
    <path class="cls-1" d="M271.34,112.92v45h-24.2v-.06c-1.39,0-2.77-.14-4.14-.42-1.37-.28-2.69-.69-3.95-1.23-1.26-.54-2.44-1.21-3.52-2.01s-2.04-1.7-2.87-2.7c-1.22-1.52-2.03-3.27-2.45-5.25s-.62-3.87-.62-5.67v-27.66h9.07v27.66c0,1.32.13,2.55.39,3.69s.72,2.15,1.37,3.03c.65.88,1.52,1.57,2.61,2.07s2.46.75,4.11.75h14.49v-37.2h9.71Z"/>
  </g>
</svg>